<svg width="1159" height="1156" viewBox="0 0 1159 1156" fill="none" xmlns="http://www.w3.org/2000/svg">
<path d="M579.923 0L608.468 335.698L713.662 15.6319L664.021 348.864L840.192 61.6848L715.04 374.487L952.69 135.676L758.775 411.185L1045.09 233.617L792.867 456.979L1112.42 350.227L815.48 509.401L1151.04 479.22L825.394 565.626L1158.86 613.642L822.074 622.621L1135.48 746.246L805.7 677.314L1082.15 869.884L777.154 726.756L1001.74 977.89L737.976 768.283L898.595 1064.44L690.277 799.656L778.268 1124.87L636.628 819.182L647.248 1155.92L579.923 825.81L512.598 1155.92L523.217 819.182L381.577 1124.87L469.569 799.656L261.25 1064.44L421.869 768.283L158.102 977.89L382.691 726.756L77.6949 869.884L354.145 677.314L24.3629 746.246L337.771 622.621L0.98114 613.642L334.451 565.626L8.8103 479.22L344.365 509.401L47.4283 350.227L366.978 456.979L114.753 233.617L401.071 411.185L207.156 135.676L444.805 374.487L319.654 61.6848L495.824 348.864L446.183 15.6319L551.377 335.698L579.923 0Z" 
    fill="#48937e"
/>
</svg>
